<?xml version="1.0" encoding="UTF-8"?>
<!DOCTYPE svg PUBLIC "-//W3C//DTD SVG 1.1//EN" "http://www.w3.org/Graphics/SVG/1.1/DTD/svg11.dtd">
<!-- Creator: CorelDRAW 2019 (64-Bit) -->
<svg xmlns="http://www.w3.org/2000/svg" xml:space="preserve" width="100%" height="100%" version="1.1" style="shape-rendering:geometricPrecision; text-rendering:geometricPrecision; image-rendering:optimizeQuality; fill-rule:evenodd; clip-rule:evenodd"
viewBox="0 0 8878 1342"
 xmlns:xlink="http://www.w3.org/1999/xlink">
 <defs>
  <style type="text/css">
   <![CDATA[
    .fil0 {fill:#202124}
   ]]>
  </style>
 </defs>
 <g id="Layer_x0020_1">
  <metadata id="CorelCorpID_0Corel-Layer"/>
  <path class="fil0" d="M181 0l657 5 -561 647c0,0 -34,60 -18,124 15,60 108,81 108,81l547 0 2 486 -706 -1c0,0 -212,-52 -209,-224l0 -899c0,0 -2,-194 181,-219l0 0 0 0zm999 1284l-19 -675 -561 -5c0,0 -67,-57 -19,-119 48,-62 428,-480 428,-480l143 0c0,0 203,-5 205,195l5 965c0,0 8,120 -99,121 -42,1 -82,-2 -82,-2l0 0 0 0z"/>
  <path class="fil0" d="M2586 926l0 -151 -107 0 0 -641 -83 0 -584 682 0 109 486 0 0 279 182 0 0 -279 107 0 0 0zm-289 -151l-274 0 274 -319 0 319 0 0zm1237 -146c0,-151 -46,-270 -137,-361 -91,-91 -213,-137 -368,-137 -39,0 -134,3 -285,7l0 1065 237 0c368,0 553,-192 553,-575l0 0zm-514 -329c212,0 318,113 318,341 0,125 -27,222 -80,291 -55,70 -130,104 -225,104 -34,0 -69,-1 -98,-4l0 -727c37,-3 66,-4 86,-4l0 0zm1356 7l0 -168 -674 0 0 1065 674 0 0 -168 -484 0 0 -319 346 0 0 -161 -346 0 0 -249 484 0zm613 -186c-143,0 -259,54 -352,159 -91,106 -137,237 -137,395 0,168 42,303 124,399 82,98 198,148 347,148 149,0 262,-42 340,-124l-88 -153c-57,73 -136,109 -236,109 -88,0 -159,-33 -212,-100 -52,-67 -79,-158 -79,-271 0,-113 28,-207 85,-282 57,-74 130,-112 219,-112 94,0 161,21 204,63l78 -156c-73,-49 -171,-75 -294,-75l0 0zm668 1083l0 -1065 -189 0 0 1065 189 0 0 0zm441 18c113,0 206,-28 273,-83 69,-55 103,-127 103,-213 0,-48 -9,-91 -25,-131 -16,-39 -40,-73 -72,-101 -31,-30 -83,-63 -155,-97 -136,-66 -203,-130 -203,-191 0,-36 12,-66 36,-89 24,-22 58,-34 101,-34 75,0 145,24 210,72l58 -164c-58,-46 -148,-69 -271,-69 -95,0 -173,27 -233,82 -61,54 -91,122 -91,204 0,45 7,85 22,121 16,37 37,69 66,94 30,27 85,61 167,101 82,40 136,77 162,110 25,33 39,69 39,104 0,77 -55,116 -167,116 -73,0 -146,-27 -221,-79l-70 170c80,52 170,77 270,77l0 0zm735 -18l0 -1065 -189 0 0 1065 189 0 0 0z"/>
  <path class="fil0" d="M7117 1072c76,100 186,151 329,151 155,0 276,-51 361,-152 85,-100 127,-237 127,-408 0,-171 -40,-305 -122,-399 -80,-95 -198,-143 -350,-143 -140,0 -250,52 -334,158 -83,104 -125,232 -125,384 0,174 39,310 115,410l0 0zm149 -682c46,-67 110,-101 195,-101 183,0 276,125 276,374 0,128 -25,225 -75,292 -49,67 -122,100 -216,100 -80,0 -142,-34 -185,-103 -42,-69 -63,-164 -63,-289 0,-115 22,-206 67,-273l0 0zm1611 830l0 -1080 -182 0 0 644 -504 -644 -91 0 0 1065 182 0 0 -660 517 675 78 0 0 0z"/>
 </g>
</svg>
