<?xml version="1.0" encoding="UTF-8"?>
<!DOCTYPE svg PUBLIC "-//W3C//DTD SVG 1.1//EN" "http://www.w3.org/Graphics/SVG/1.1/DTD/svg11.dtd">
<!-- Creator: CorelDRAW 2019 (64-Bit) -->
<svg xmlns="http://www.w3.org/2000/svg" xml:space="preserve" width="100%" height="100%" version="1.1" style="shape-rendering:geometricPrecision; text-rendering:geometricPrecision; image-rendering:optimizeQuality; fill-rule:evenodd; clip-rule:evenodd"
viewBox="0 0 1376.547 1346.922"
 xmlns:xlink="http://www.w3.org/1999/xlink">
 <defs>
  <style type="text/css">
   <![CDATA[
    .str0 {stroke:#2B2A29;stroke-width:0.762;stroke-miterlimit:22.9256}
    .fil0 {fill:none}
   ]]>
  </style>
 </defs>
 <g id="Layer_x0020_1">
  <metadata id="CorelCorpID_0Corel-Layer"/>
  <path class="fil0 str0" d="M1268.592 962.497l-248.875 -496.701 -420.042 191.568c0,0 -69.479,-19.378 -55.516,-82.021 13.97,-62.611 152.167,-506.812 152.167,-506.812l106.36 -49.596c0,0 149.918,-74.227 220.233,74.248l339.082 717.903c0,0 47.56,86.484 -31.417,124.709 -30.834,14.904 -62.014,26.713 -62.014,26.713l-0.004 -0.008 0.026 -0.003zm-1190.877 -609.831l490.969 -224.623 -193.606 677.163c0,0 -4.534,56.577 29.682,98.351 32.332,39.504 108.761,22.648 108.761,22.648l407.759 -190.142 170.631 361.697 -526.8 244.534c0,0 -175.974,34.637 -233.708,-93.825l-312.384 -669.91c0,0 -69.134,-143.627 58.693,-225.9l0 0 0.003 0.007z"/>
 </g>
</svg>
